<?xml version="1.0" encoding="utf-8" ?>
<!DOCTYPE svg PUBLIC "-//W3C//DTD SVG 1.1//EN" "http://www.w3.org/Graphics/SVG/1.1/DTD/svg11.dtd">
<svg height="468" version="1.1" width="748" xmlns="http://www.w3.org/2000/svg">
<line fill="#000000" stroke="#000000" stroke-width="1" x1="86" x2="86" y1="63" y2="68"/>
<line fill="#000000" stroke="#000000" stroke-width="1" x1="86" x2="86" y1="73" y2="78"/>
<line fill="#000000" stroke="#000000" stroke-width="1" x1="86" x2="86" y1="83" y2="88"/>
<line fill="#000000" stroke="#000000" stroke-width="1" x1="86" x2="86" y1="93" y2="98"/>
<line fill="#000000" stroke="#000000" stroke-width="1" x1="86" x2="86" y1="103" y2="108"/>
<line fill="#000000" stroke="#000000" stroke-width="1" x1="86" x2="86" y1="113" y2="118"/>
<line fill="#000000" stroke="#000000" stroke-width="1" x1="86" x2="86" y1="123" y2="128"/>
<line fill="#000000" stroke="#000000" stroke-width="1" x1="86" x2="86" y1="133" y2="138"/>
<line fill="#000000" stroke="#000000" stroke-width="1" x1="86" x2="86" y1="143" y2="148"/>
<line fill="#000000" stroke="#000000" stroke-width="1" x1="86" x2="86" y1="153" y2="158"/>
<line fill="#000000" stroke="#000000" stroke-width="1" x1="86" x2="86" y1="163" y2="168"/>
<line fill="#000000" stroke="#000000" stroke-width="1" x1="86" x2="86" y1="173" y2="178"/>
<line fill="#000000" stroke="#000000" stroke-width="1" x1="86" x2="86" y1="183" y2="188"/>
<line fill="#000000" stroke="#000000" stroke-width="1" x1="86" x2="86" y1="193" y2="198"/>
<line fill="#000000" stroke="#000000" stroke-width="1" x1="86" x2="86" y1="203" y2="208"/>
<line fill="#000000" stroke="#000000" stroke-width="1" x1="86" x2="86" y1="213" y2="218"/>
<line fill="#000000" stroke="#000000" stroke-width="1" x1="86" x2="86" y1="223" y2="228"/>
<line fill="#000000" stroke="#000000" stroke-width="1" x1="86" x2="86" y1="233" y2="238"/>
<line fill="#000000" stroke="#000000" stroke-width="1" x1="86" x2="86" y1="243" y2="248"/>
<line fill="#000000" stroke="#000000" stroke-width="1" x1="86" x2="86" y1="253" y2="258"/>
<line fill="#000000" stroke="#000000" stroke-width="1" x1="86" x2="86" y1="263" y2="268"/>
<line fill="#000000" stroke="#000000" stroke-width="1" x1="86" x2="86" y1="273" y2="278"/>
<line fill="#000000" stroke="#000000" stroke-width="1" x1="86" x2="86" y1="283" y2="288"/>
<line fill="#000000" stroke="#000000" stroke-width="1" x1="86" x2="86" y1="293" y2="298"/>
<line fill="#000000" stroke="#000000" stroke-width="1" x1="86" x2="86" y1="303" y2="308"/>
<line fill="#000000" stroke="#000000" stroke-width="1" x1="86" x2="86" y1="313" y2="318"/>
<line fill="#000000" stroke="#000000" stroke-width="1" x1="86" x2="86" y1="323" y2="328"/>
<line fill="#000000" stroke="#000000" stroke-width="1" x1="86" x2="86" y1="333" y2="338"/>
<line fill="#000000" stroke="#000000" stroke-width="1" x1="86" x2="86" y1="343" y2="348"/>
<line fill="#000000" stroke="#000000" stroke-width="1" x1="86" x2="86" y1="353" y2="358"/>
<line fill="#000000" stroke="#000000" stroke-width="1" x1="86" x2="86" y1="363" y2="368"/>
<line fill="#000000" stroke="#000000" stroke-width="1" x1="86" x2="86" y1="373" y2="378"/>
<line fill="#000000" stroke="#000000" stroke-width="1" x1="86" x2="86" y1="383" y2="388"/>
<line fill="#000000" stroke="#000000" stroke-width="1" x1="86" x2="86" y1="393" y2="398"/>
<line fill="#000000" stroke="#000000" stroke-width="1" x1="86" x2="86" y1="403" y2="408"/>
<line fill="#000000" stroke="#000000" stroke-width="1" x1="86" x2="86" y1="413" y2="418"/>
<line fill="#000000" stroke="#000000" stroke-width="1" x1="86" x2="86" y1="423" y2="428"/>
<line fill="#000000" stroke="#000000" stroke-width="1" x1="86" x2="86" y1="433" y2="438"/>
<line fill="#000000" stroke="#000000" stroke-width="1" x1="86" x2="86" y1="443" y2="448"/>
<rect fill="#ffffff" height="390" stroke="#ffffff" stroke-width="1" width="20" x="76" y="63"/>
<rect fill="none" height="390" stroke="#000000" stroke-width="1" width="20" x="76" y="63"/>
<rect fill="#ffffff" height="50" stroke="#ffffff" stroke-width="1" width="144" x="14" y="14"/>
<rect fill="none" height="50" stroke="#000000" stroke-width="1" width="144" x="14" y="14"/>
<text font-family="Dialog" font-size="12" x="66" y="27">
/Client</text>
<line fill="#000000" stroke="#000000" stroke-width="1" x1="370" x2="370" y1="63" y2="68"/>
<line fill="#000000" stroke="#000000" stroke-width="1" x1="370" x2="370" y1="73" y2="78"/>
<line fill="#000000" stroke="#000000" stroke-width="1" x1="370" x2="370" y1="83" y2="88"/>
<line fill="#000000" stroke="#000000" stroke-width="1" x1="370" x2="370" y1="93" y2="98"/>
<line fill="#000000" stroke="#000000" stroke-width="1" x1="370" x2="370" y1="103" y2="108"/>
<line fill="#000000" stroke="#000000" stroke-width="1" x1="370" x2="370" y1="113" y2="118"/>
<line fill="#000000" stroke="#000000" stroke-width="1" x1="370" x2="370" y1="123" y2="128"/>
<line fill="#000000" stroke="#000000" stroke-width="1" x1="370" x2="370" y1="133" y2="138"/>
<line fill="#000000" stroke="#000000" stroke-width="1" x1="370" x2="370" y1="143" y2="148"/>
<line fill="#000000" stroke="#000000" stroke-width="1" x1="370" x2="370" y1="153" y2="158"/>
<line fill="#000000" stroke="#000000" stroke-width="1" x1="370" x2="370" y1="163" y2="168"/>
<line fill="#000000" stroke="#000000" stroke-width="1" x1="370" x2="370" y1="173" y2="178"/>
<line fill="#000000" stroke="#000000" stroke-width="1" x1="370" x2="370" y1="183" y2="188"/>
<line fill="#000000" stroke="#000000" stroke-width="1" x1="370" x2="370" y1="193" y2="198"/>
<line fill="#000000" stroke="#000000" stroke-width="1" x1="370" x2="370" y1="203" y2="208"/>
<line fill="#000000" stroke="#000000" stroke-width="1" x1="370" x2="370" y1="213" y2="218"/>
<line fill="#000000" stroke="#000000" stroke-width="1" x1="370" x2="370" y1="223" y2="228"/>
<line fill="#000000" stroke="#000000" stroke-width="1" x1="370" x2="370" y1="233" y2="238"/>
<line fill="#000000" stroke="#000000" stroke-width="1" x1="370" x2="370" y1="243" y2="248"/>
<line fill="#000000" stroke="#000000" stroke-width="1" x1="370" x2="370" y1="253" y2="258"/>
<line fill="#000000" stroke="#000000" stroke-width="1" x1="370" x2="370" y1="263" y2="268"/>
<line fill="#000000" stroke="#000000" stroke-width="1" x1="370" x2="370" y1="273" y2="278"/>
<line fill="#000000" stroke="#000000" stroke-width="1" x1="370" x2="370" y1="283" y2="288"/>
<line fill="#000000" stroke="#000000" stroke-width="1" x1="370" x2="370" y1="293" y2="298"/>
<line fill="#000000" stroke="#000000" stroke-width="1" x1="370" x2="370" y1="303" y2="308"/>
<line fill="#000000" stroke="#000000" stroke-width="1" x1="370" x2="370" y1="313" y2="318"/>
<line fill="#000000" stroke="#000000" stroke-width="1" x1="370" x2="370" y1="323" y2="328"/>
<line fill="#000000" stroke="#000000" stroke-width="1" x1="370" x2="370" y1="333" y2="338"/>
<line fill="#000000" stroke="#000000" stroke-width="1" x1="370" x2="370" y1="343" y2="348"/>
<line fill="#000000" stroke="#000000" stroke-width="1" x1="370" x2="370" y1="353" y2="358"/>
<line fill="#000000" stroke="#000000" stroke-width="1" x1="370" x2="370" y1="363" y2="368"/>
<line fill="#000000" stroke="#000000" stroke-width="1" x1="370" x2="370" y1="373" y2="378"/>
<line fill="#000000" stroke="#000000" stroke-width="1" x1="370" x2="370" y1="383" y2="388"/>
<line fill="#000000" stroke="#000000" stroke-width="1" x1="370" x2="370" y1="393" y2="398"/>
<line fill="#000000" stroke="#000000" stroke-width="1" x1="370" x2="370" y1="403" y2="408"/>
<line fill="#000000" stroke="#000000" stroke-width="1" x1="370" x2="370" y1="413" y2="418"/>
<line fill="#000000" stroke="#000000" stroke-width="1" x1="370" x2="370" y1="423" y2="428"/>
<line fill="#000000" stroke="#000000" stroke-width="1" x1="370" x2="370" y1="433" y2="438"/>
<line fill="#000000" stroke="#000000" stroke-width="1" x1="370" x2="370" y1="443" y2="448"/>
<rect fill="#ffffff" height="64" stroke="#ffffff" stroke-width="1" width="20" x="360" y="86"/>
<rect fill="none" height="64" stroke="#000000" stroke-width="1" width="20" x="360" y="86"/>
<rect fill="#ffffff" height="84" stroke="#ffffff" stroke-width="1" width="20" x="360" y="190"/>
<rect fill="none" height="84" stroke="#000000" stroke-width="1" width="20" x="360" y="190"/>
<rect fill="#ffffff" height="56" stroke="#ffffff" stroke-width="1" width="20" x="360" y="318"/>
<rect fill="none" height="56" stroke="#000000" stroke-width="1" width="20" x="360" y="318"/>
<rect fill="#ffffff" height="50" stroke="#ffffff" stroke-width="1" width="136" x="302" y="14"/>
<rect fill="none" height="50" stroke="#000000" stroke-width="1" width="136" x="302" y="14"/>
<text font-family="Dialog" font-size="12" x="348" y="27">
/Server</text>
<polyline fill="none" points="96,86 360,86" stroke="#000000" stroke-width="1"/>
<polygon fill="#000000" points="360,86 348,93 348,79" stroke="#000000" stroke-width="1"/>
<polygon fill="none" points="360,86 348,93 348,79" stroke="#000000" stroke-width="1"/>
<text font-family="Dialog" font-size="12" x="184" y="81">
MeetingRequest</text>
<line fill="#000000" stroke="#000000" stroke-width="1" x1="360" x2="355" y1="150" y2="150"/>
<line fill="#000000" stroke="#000000" stroke-width="1" x1="350" x2="345" y1="150" y2="150"/>
<line fill="#000000" stroke="#000000" stroke-width="1" x1="340" x2="335" y1="150" y2="150"/>
<line fill="#000000" stroke="#000000" stroke-width="1" x1="330" x2="325" y1="150" y2="150"/>
<line fill="#000000" stroke="#000000" stroke-width="1" x1="320" x2="315" y1="150" y2="150"/>
<line fill="#000000" stroke="#000000" stroke-width="1" x1="310" x2="305" y1="150" y2="150"/>
<line fill="#000000" stroke="#000000" stroke-width="1" x1="300" x2="295" y1="150" y2="150"/>
<line fill="#000000" stroke="#000000" stroke-width="1" x1="290" x2="285" y1="150" y2="150"/>
<line fill="#000000" stroke="#000000" stroke-width="1" x1="280" x2="275" y1="150" y2="150"/>
<line fill="#000000" stroke="#000000" stroke-width="1" x1="270" x2="265" y1="150" y2="150"/>
<line fill="#000000" stroke="#000000" stroke-width="1" x1="260" x2="255" y1="150" y2="150"/>
<line fill="#000000" stroke="#000000" stroke-width="1" x1="250" x2="245" y1="150" y2="150"/>
<line fill="#000000" stroke="#000000" stroke-width="1" x1="240" x2="235" y1="150" y2="150"/>
<line fill="#000000" stroke="#000000" stroke-width="1" x1="230" x2="225" y1="150" y2="150"/>
<line fill="#000000" stroke="#000000" stroke-width="1" x1="220" x2="215" y1="150" y2="150"/>
<line fill="#000000" stroke="#000000" stroke-width="1" x1="210" x2="205" y1="150" y2="150"/>
<line fill="#000000" stroke="#000000" stroke-width="1" x1="200" x2="195" y1="150" y2="150"/>
<line fill="#000000" stroke="#000000" stroke-width="1" x1="190" x2="185" y1="150" y2="150"/>
<line fill="#000000" stroke="#000000" stroke-width="1" x1="180" x2="175" y1="150" y2="150"/>
<line fill="#000000" stroke="#000000" stroke-width="1" x1="170" x2="165" y1="150" y2="150"/>
<line fill="#000000" stroke="#000000" stroke-width="1" x1="160" x2="155" y1="150" y2="150"/>
<line fill="#000000" stroke="#000000" stroke-width="1" x1="150" x2="145" y1="150" y2="150"/>
<line fill="#000000" stroke="#000000" stroke-width="1" x1="140" x2="135" y1="150" y2="150"/>
<line fill="#000000" stroke="#000000" stroke-width="1" x1="130" x2="125" y1="150" y2="150"/>
<line fill="#000000" stroke="#000000" stroke-width="1" x1="120" x2="115" y1="150" y2="150"/>
<line fill="#000000" stroke="#000000" stroke-width="1" x1="110" x2="105" y1="150" y2="150"/>
<line fill="#000000" stroke="#000000" stroke-width="1" x1="100" x2="96" y1="150" y2="150"/>
<line fill="#000000" stroke="#000000" stroke-width="1" x1="108" x2="96" y1="143" y2="150"/>
<line fill="#000000" stroke="#000000" stroke-width="1" x1="108" x2="96" y1="157" y2="150"/>
<text font-family="Dialog" font-size="12" x="188" y="145">
Ack</text>
<line fill="#000000" stroke="#000000" stroke-width="1" x1="650" x2="650" y1="63" y2="68"/>
<line fill="#000000" stroke="#000000" stroke-width="1" x1="650" x2="650" y1="73" y2="78"/>
<line fill="#000000" stroke="#000000" stroke-width="1" x1="650" x2="650" y1="83" y2="88"/>
<line fill="#000000" stroke="#000000" stroke-width="1" x1="650" x2="650" y1="93" y2="98"/>
<line fill="#000000" stroke="#000000" stroke-width="1" x1="650" x2="650" y1="103" y2="108"/>
<line fill="#000000" stroke="#000000" stroke-width="1" x1="650" x2="650" y1="113" y2="118"/>
<line fill="#000000" stroke="#000000" stroke-width="1" x1="650" x2="650" y1="123" y2="128"/>
<line fill="#000000" stroke="#000000" stroke-width="1" x1="650" x2="650" y1="133" y2="138"/>
<line fill="#000000" stroke="#000000" stroke-width="1" x1="650" x2="650" y1="143" y2="148"/>
<line fill="#000000" stroke="#000000" stroke-width="1" x1="650" x2="650" y1="153" y2="158"/>
<line fill="#000000" stroke="#000000" stroke-width="1" x1="650" x2="650" y1="163" y2="168"/>
<line fill="#000000" stroke="#000000" stroke-width="1" x1="650" x2="650" y1="173" y2="178"/>
<line fill="#000000" stroke="#000000" stroke-width="1" x1="650" x2="650" y1="183" y2="188"/>
<line fill="#000000" stroke="#000000" stroke-width="1" x1="650" x2="650" y1="193" y2="198"/>
<line fill="#000000" stroke="#000000" stroke-width="1" x1="650" x2="650" y1="203" y2="208"/>
<line fill="#000000" stroke="#000000" stroke-width="1" x1="650" x2="650" y1="213" y2="218"/>
<line fill="#000000" stroke="#000000" stroke-width="1" x1="650" x2="650" y1="223" y2="228"/>
<line fill="#000000" stroke="#000000" stroke-width="1" x1="650" x2="650" y1="233" y2="238"/>
<line fill="#000000" stroke="#000000" stroke-width="1" x1="650" x2="650" y1="243" y2="248"/>
<line fill="#000000" stroke="#000000" stroke-width="1" x1="650" x2="650" y1="253" y2="258"/>
<line fill="#000000" stroke="#000000" stroke-width="1" x1="650" x2="650" y1="263" y2="268"/>
<line fill="#000000" stroke="#000000" stroke-width="1" x1="650" x2="650" y1="273" y2="278"/>
<line fill="#000000" stroke="#000000" stroke-width="1" x1="650" x2="650" y1="283" y2="288"/>
<line fill="#000000" stroke="#000000" stroke-width="1" x1="650" x2="650" y1="293" y2="298"/>
<line fill="#000000" stroke="#000000" stroke-width="1" x1="650" x2="650" y1="303" y2="308"/>
<line fill="#000000" stroke="#000000" stroke-width="1" x1="650" x2="650" y1="313" y2="318"/>
<line fill="#000000" stroke="#000000" stroke-width="1" x1="650" x2="650" y1="323" y2="328"/>
<line fill="#000000" stroke="#000000" stroke-width="1" x1="650" x2="650" y1="333" y2="338"/>
<line fill="#000000" stroke="#000000" stroke-width="1" x1="650" x2="650" y1="343" y2="348"/>
<line fill="#000000" stroke="#000000" stroke-width="1" x1="650" x2="650" y1="353" y2="358"/>
<line fill="#000000" stroke="#000000" stroke-width="1" x1="650" x2="650" y1="363" y2="368"/>
<line fill="#000000" stroke="#000000" stroke-width="1" x1="650" x2="650" y1="373" y2="378"/>
<line fill="#000000" stroke="#000000" stroke-width="1" x1="650" x2="650" y1="383" y2="388"/>
<line fill="#000000" stroke="#000000" stroke-width="1" x1="650" x2="650" y1="393" y2="398"/>
<line fill="#000000" stroke="#000000" stroke-width="1" x1="650" x2="650" y1="403" y2="408"/>
<line fill="#000000" stroke="#000000" stroke-width="1" x1="650" x2="650" y1="413" y2="418"/>
<line fill="#000000" stroke="#000000" stroke-width="1" x1="650" x2="650" y1="423" y2="428"/>
<line fill="#000000" stroke="#000000" stroke-width="1" x1="650" x2="650" y1="433" y2="438"/>
<line fill="#000000" stroke="#000000" stroke-width="1" x1="650" x2="650" y1="443" y2="448"/>
<rect fill="#ffffff" height="390" stroke="#ffffff" stroke-width="1" width="20" x="640" y="63"/>
<rect fill="none" height="390" stroke="#000000" stroke-width="1" width="20" x="640" y="63"/>
<rect fill="#ffffff" height="50" stroke="#ffffff" stroke-width="1" width="168" x="566" y="14"/>
<rect fill="none" height="50" stroke="#000000" stroke-width="1" width="168" x="566" y="14"/>
<text font-family="Dialog" font-size="12" x="617" y="27">
/Database</text>
<polyline fill="none" points="380,118 640,118" stroke="#000000" stroke-width="1"/>
<line fill="#000000" stroke="#000000" stroke-width="1" x1="628" x2="640" y1="125" y2="118"/>
<line fill="#000000" stroke="#000000" stroke-width="1" x1="628" x2="640" y1="111" y2="118"/>
<text font-family="Dialog" font-size="12" x="466" y="113">
StoreRequest</text>
<polyline fill="none" points="96,190 360,190" stroke="#000000" stroke-width="1"/>
<polygon fill="#000000" points="360,190 348,197 348,183" stroke="#000000" stroke-width="1"/>
<polygon fill="none" points="360,190 348,197 348,183" stroke="#000000" stroke-width="1"/>
<text font-family="Dialog" font-size="12" x="183" y="185">
Check In</text>
<polyline fill="none" points="380,214 640,214" stroke="#000000" stroke-width="1"/>
<polygon fill="#000000" points="640,214 628,221 628,207" stroke="#000000" stroke-width="1"/>
<polygon fill="none" points="640,214 628,221 628,207" stroke="#000000" stroke-width="1"/>
<text font-family="Dialog" font-size="12" x="465" y="209">
GetRequest</text>
<line fill="#000000" stroke="#000000" stroke-width="1" x1="640" x2="635" y1="254" y2="254"/>
<line fill="#000000" stroke="#000000" stroke-width="1" x1="630" x2="625" y1="254" y2="254"/>
<line fill="#000000" stroke="#000000" stroke-width="1" x1="620" x2="615" y1="254" y2="254"/>
<line fill="#000000" stroke="#000000" stroke-width="1" x1="610" x2="605" y1="254" y2="254"/>
<line fill="#000000" stroke="#000000" stroke-width="1" x1="600" x2="595" y1="254" y2="254"/>
<line fill="#000000" stroke="#000000" stroke-width="1" x1="590" x2="585" y1="254" y2="254"/>
<line fill="#000000" stroke="#000000" stroke-width="1" x1="580" x2="575" y1="254" y2="254"/>
<line fill="#000000" stroke="#000000" stroke-width="1" x1="570" x2="565" y1="254" y2="254"/>
<line fill="#000000" stroke="#000000" stroke-width="1" x1="560" x2="555" y1="254" y2="254"/>
<line fill="#000000" stroke="#000000" stroke-width="1" x1="550" x2="545" y1="254" y2="254"/>
<line fill="#000000" stroke="#000000" stroke-width="1" x1="540" x2="535" y1="254" y2="254"/>
<line fill="#000000" stroke="#000000" stroke-width="1" x1="530" x2="525" y1="254" y2="254"/>
<line fill="#000000" stroke="#000000" stroke-width="1" x1="520" x2="515" y1="254" y2="254"/>
<line fill="#000000" stroke="#000000" stroke-width="1" x1="510" x2="505" y1="254" y2="254"/>
<line fill="#000000" stroke="#000000" stroke-width="1" x1="500" x2="495" y1="254" y2="254"/>
<line fill="#000000" stroke="#000000" stroke-width="1" x1="490" x2="485" y1="254" y2="254"/>
<line fill="#000000" stroke="#000000" stroke-width="1" x1="480" x2="475" y1="254" y2="254"/>
<line fill="#000000" stroke="#000000" stroke-width="1" x1="470" x2="465" y1="254" y2="254"/>
<line fill="#000000" stroke="#000000" stroke-width="1" x1="460" x2="455" y1="254" y2="254"/>
<line fill="#000000" stroke="#000000" stroke-width="1" x1="450" x2="445" y1="254" y2="254"/>
<line fill="#000000" stroke="#000000" stroke-width="1" x1="440" x2="435" y1="254" y2="254"/>
<line fill="#000000" stroke="#000000" stroke-width="1" x1="430" x2="425" y1="254" y2="254"/>
<line fill="#000000" stroke="#000000" stroke-width="1" x1="420" x2="415" y1="254" y2="254"/>
<line fill="#000000" stroke="#000000" stroke-width="1" x1="410" x2="405" y1="254" y2="254"/>
<line fill="#000000" stroke="#000000" stroke-width="1" x1="400" x2="395" y1="254" y2="254"/>
<line fill="#000000" stroke="#000000" stroke-width="1" x1="390" x2="385" y1="254" y2="254"/>
<line fill="#000000" stroke="#000000" stroke-width="1" x1="392" x2="380" y1="247" y2="254"/>
<line fill="#000000" stroke="#000000" stroke-width="1" x1="392" x2="380" y1="261" y2="254"/>
<text font-family="Dialog" font-size="12" x="466" y="249">
DataRequested</text>
<line fill="#000000" stroke="#000000" stroke-width="1" x1="360" x2="355" y1="274" y2="274"/>
<line fill="#000000" stroke="#000000" stroke-width="1" x1="350" x2="345" y1="274" y2="274"/>
<line fill="#000000" stroke="#000000" stroke-width="1" x1="340" x2="335" y1="274" y2="274"/>
<line fill="#000000" stroke="#000000" stroke-width="1" x1="330" x2="325" y1="274" y2="274"/>
<line fill="#000000" stroke="#000000" stroke-width="1" x1="320" x2="315" y1="274" y2="274"/>
<line fill="#000000" stroke="#000000" stroke-width="1" x1="310" x2="305" y1="274" y2="274"/>
<line fill="#000000" stroke="#000000" stroke-width="1" x1="300" x2="295" y1="274" y2="274"/>
<line fill="#000000" stroke="#000000" stroke-width="1" x1="290" x2="285" y1="274" y2="274"/>
<line fill="#000000" stroke="#000000" stroke-width="1" x1="280" x2="275" y1="274" y2="274"/>
<line fill="#000000" stroke="#000000" stroke-width="1" x1="270" x2="265" y1="274" y2="274"/>
<line fill="#000000" stroke="#000000" stroke-width="1" x1="260" x2="255" y1="274" y2="274"/>
<line fill="#000000" stroke="#000000" stroke-width="1" x1="250" x2="245" y1="274" y2="274"/>
<line fill="#000000" stroke="#000000" stroke-width="1" x1="240" x2="235" y1="274" y2="274"/>
<line fill="#000000" stroke="#000000" stroke-width="1" x1="230" x2="225" y1="274" y2="274"/>
<line fill="#000000" stroke="#000000" stroke-width="1" x1="220" x2="215" y1="274" y2="274"/>
<line fill="#000000" stroke="#000000" stroke-width="1" x1="210" x2="205" y1="274" y2="274"/>
<line fill="#000000" stroke="#000000" stroke-width="1" x1="200" x2="195" y1="274" y2="274"/>
<line fill="#000000" stroke="#000000" stroke-width="1" x1="190" x2="185" y1="274" y2="274"/>
<line fill="#000000" stroke="#000000" stroke-width="1" x1="180" x2="175" y1="274" y2="274"/>
<line fill="#000000" stroke="#000000" stroke-width="1" x1="170" x2="165" y1="274" y2="274"/>
<line fill="#000000" stroke="#000000" stroke-width="1" x1="160" x2="155" y1="274" y2="274"/>
<line fill="#000000" stroke="#000000" stroke-width="1" x1="150" x2="145" y1="274" y2="274"/>
<line fill="#000000" stroke="#000000" stroke-width="1" x1="140" x2="135" y1="274" y2="274"/>
<line fill="#000000" stroke="#000000" stroke-width="1" x1="130" x2="125" y1="274" y2="274"/>
<line fill="#000000" stroke="#000000" stroke-width="1" x1="120" x2="115" y1="274" y2="274"/>
<line fill="#000000" stroke="#000000" stroke-width="1" x1="110" x2="105" y1="274" y2="274"/>
<line fill="#000000" stroke="#000000" stroke-width="1" x1="100" x2="96" y1="274" y2="274"/>
<line fill="#000000" stroke="#000000" stroke-width="1" x1="108" x2="96" y1="267" y2="274"/>
<line fill="#000000" stroke="#000000" stroke-width="1" x1="108" x2="96" y1="281" y2="274"/>
<text font-family="Dialog" font-size="12" x="182" y="269">
Check in Response</text>
<polyline fill="none" points="96,318 360,318" stroke="#000000" stroke-width="1"/>
<polygon fill="#000000" points="360,318 348,325 348,311" stroke="#000000" stroke-width="1"/>
<polygon fill="none" points="360,318 348,325 348,311" stroke="#000000" stroke-width="1"/>
<text font-family="Dialog" font-size="12" x="184" y="313">
RespondToRequest()</text>
<line fill="#000000" stroke="#000000" stroke-width="1" x1="360" x2="355" y1="374" y2="374"/>
<line fill="#000000" stroke="#000000" stroke-width="1" x1="350" x2="345" y1="374" y2="374"/>
<line fill="#000000" stroke="#000000" stroke-width="1" x1="340" x2="335" y1="374" y2="374"/>
<line fill="#000000" stroke="#000000" stroke-width="1" x1="330" x2="325" y1="374" y2="374"/>
<line fill="#000000" stroke="#000000" stroke-width="1" x1="320" x2="315" y1="374" y2="374"/>
<line fill="#000000" stroke="#000000" stroke-width="1" x1="310" x2="305" y1="374" y2="374"/>
<line fill="#000000" stroke="#000000" stroke-width="1" x1="300" x2="295" y1="374" y2="374"/>
<line fill="#000000" stroke="#000000" stroke-width="1" x1="290" x2="285" y1="374" y2="374"/>
<line fill="#000000" stroke="#000000" stroke-width="1" x1="280" x2="275" y1="374" y2="374"/>
<line fill="#000000" stroke="#000000" stroke-width="1" x1="270" x2="265" y1="374" y2="374"/>
<line fill="#000000" stroke="#000000" stroke-width="1" x1="260" x2="255" y1="374" y2="374"/>
<line fill="#000000" stroke="#000000" stroke-width="1" x1="250" x2="245" y1="374" y2="374"/>
<line fill="#000000" stroke="#000000" stroke-width="1" x1="240" x2="235" y1="374" y2="374"/>
<line fill="#000000" stroke="#000000" stroke-width="1" x1="230" x2="225" y1="374" y2="374"/>
<line fill="#000000" stroke="#000000" stroke-width="1" x1="220" x2="215" y1="374" y2="374"/>
<line fill="#000000" stroke="#000000" stroke-width="1" x1="210" x2="205" y1="374" y2="374"/>
<line fill="#000000" stroke="#000000" stroke-width="1" x1="200" x2="195" y1="374" y2="374"/>
<line fill="#000000" stroke="#000000" stroke-width="1" x1="190" x2="185" y1="374" y2="374"/>
<line fill="#000000" stroke="#000000" stroke-width="1" x1="180" x2="175" y1="374" y2="374"/>
<line fill="#000000" stroke="#000000" stroke-width="1" x1="170" x2="165" y1="374" y2="374"/>
<line fill="#000000" stroke="#000000" stroke-width="1" x1="160" x2="155" y1="374" y2="374"/>
<line fill="#000000" stroke="#000000" stroke-width="1" x1="150" x2="145" y1="374" y2="374"/>
<line fill="#000000" stroke="#000000" stroke-width="1" x1="140" x2="135" y1="374" y2="374"/>
<line fill="#000000" stroke="#000000" stroke-width="1" x1="130" x2="125" y1="374" y2="374"/>
<line fill="#000000" stroke="#000000" stroke-width="1" x1="120" x2="115" y1="374" y2="374"/>
<line fill="#000000" stroke="#000000" stroke-width="1" x1="110" x2="105" y1="374" y2="374"/>
<line fill="#000000" stroke="#000000" stroke-width="1" x1="100" x2="96" y1="374" y2="374"/>
<line fill="#000000" stroke="#000000" stroke-width="1" x1="108" x2="96" y1="367" y2="374"/>
<line fill="#000000" stroke="#000000" stroke-width="1" x1="108" x2="96" y1="381" y2="374"/>
<text font-family="Dialog" font-size="12" x="188" y="369">
Ack</text>
</svg>
